<?xml version="1.0" standalone="no"?>
<!DOCTYPE svg PUBLIC "-//W3C//DTD SVG 20010904//EN"
 "http://www.w3.org/TR/2001/REC-SVG-20010904/DTD/svg10.dtd">
<svg version="1.0"
  xmlns="http://www.w3.org/2000/svg" width="150px" height="150px" viewBox="0 0 150.000000 150.000000" preserveAspectRatio="xMidYMid meet">

  <g transform="translate(0.000000,150.000000) scale(0.100000,-0.100000)" fill="#000000" stroke="none">
    <path d="M240 1483 c-72 -37 -70 -12 -70 -733 0 -594 1 -648 18 -680 34 -69
42 -70 462 -70 354 0 377 1 407 20 64 39 64 36 61 366 -3 258 -5 299 -18 299
-13 0 -16 -42 -20 -298 l-5 -299 -24 -19 c-20 -17 -40 -19 -162 -19 l-138 0 6
48 c3 29 1 58 -6 70 -12 22 -12 22 114 22 112 0 127 2 145 20 19 19 20 33 20
416 l0 395 23 -3 c21 -3 22 -7 27 -148 4 -128 7 -145 23 -148 16 -3 17 9 17
146 l0 150 30 6 c48 9 117 62 145 111 73 123 22 280 -110 341 -49 23 -52 23
-480 24 -391 0 -433 -1 -465 -17z m700 -27 c0 -2 -13 -17 -28 -34 -15 -16 -36
-48 -47 -71 l-18 -41 -272 0 -272 0 -22 -24 c-18 -19 -22 -33 -19 -77 2 -42 7
-55 21 -57 14 -3 17 4 17 40 0 81 -9 79 285 76 l260 -3 6 -46 c4 -25 14 -60
23 -76 15 -30 92 -103 108 -103 14 0 10 -784 -4 -798 -15 -15 -635 -17 -658
-2 -13 8 -16 72 -20 442 -4 376 -7 433 -20 433 -13 0 -15 -57 -18 -439 l-2
-439 22 -24 c20 -22 29 -23 146 -23 114 0 124 -1 117 -17 -15 -36 -17 -63 -7
-93 l11 -30 -143 0 c-164 0 -180 7 -191 82 -3 24 -5 318 -3 655 l3 611 24 26
c13 14 33 27 45 29 27 5 656 8 656 3z m235 -24 c69 -34 108 -98 108 -177 0
-57 -18 -97 -60 -137 -88 -84 -224 -72 -293 24 -119 164 63 380 245 290z
m-480 -1267 c28 -27 31 -45 14 -78 -16 -29 -28 -37 -63 -37 -65 0 -91 79 -40
119 35 27 59 26 89 -4z"/>
    <path d="M550 1390 c0 -20 5 -21 98 -18 78 2 97 6 97 18 0 12 -19 16 -97 18
-93 3 -98 2 -98 -18z"/>
    <path d="M354 1037 c-3 -8 -3 -56 -2 -108 l3 -94 99 -3 c73 -2 102 1 108 10 9
15 11 169 2 192 -5 13 -24 16 -105 16 -74 0 -101 -3 -105 -13z m166 -97 l0
-60 -65 0 -65 0 0 60 0 60 65 0 65 0 0 -60z"/>
    <path d="M424 966 c-3 -8 -4 -25 -2 -38 2 -18 9 -23 33 -23 28 0 30 3 30 35 0
31 -3 35 -28 38 -17 2 -29 -2 -33 -12z"/>
    <path d="M625 1030 c-8 -25 11 -51 31 -43 20 8 14 57 -8 61 -10 2 -19 -5 -23
-18z"/>
    <path d="M734 1037 c-3 -8 -3 -56 -2 -108 l3 -94 99 -3 c73 -2 102 1 108 10 9
15 11 169 2 192 -5 13 -24 16 -105 16 -74 0 -101 -3 -105 -13z m166 -97 l0
-60 -65 0 -65 0 0 60 0 60 65 0 65 0 0 -60z"/>
    <path d="M804 966 c-3 -8 -4 -25 -2 -38 2 -18 9 -23 33 -23 28 0 30 3 30 35 0
31 -3 35 -28 38 -17 2 -29 -2 -33 -12z"/>
    <path d="M631 947 c-13 -13 -14 -86 -2 -106 5 -8 16 -11 25 -8 12 5 16 20 16
61 0 55 -15 77 -39 53z"/>
    <path d="M357 764 c-4 -4 -7 -13 -7 -21 0 -10 29 -13 135 -13 l135 0 0 -32 c0
-42 13 -63 34 -55 14 5 16 18 14 64 l-3 58 -151 3 c-82 1 -153 -1 -157 -4z"/>
    <path d="M727 764 c-4 -4 -7 -47 -7 -95 l0 -88 -52 -3 c-41 -2 -54 -7 -56 -21
-3 -16 4 -18 75 -15 l78 3 0 110 c0 91 -3 110 -15 113 -9 1 -19 0 -23 -4z"/>
    <path d="M820 655 c0 -108 1 -115 20 -115 19 0 20 7 20 115 0 108 -1 115 -20
115 -19 0 -20 -7 -20 -115z"/>
    <path d="M903 754 c-3 -8 1 -22 9 -30 13 -13 16 -13 27 0 7 9 11 23 7 31 -7
20 -35 19 -43 -1z"/>
    <path d="M354 657 c-2 -7 -3 -56 -2 -108 l3 -94 102 -3 c121 -3 116 -9 111
128 l-3 85 -103 3 c-79 2 -104 0 -108 -11z m166 -92 l0 -65 -65 0 -65 0 0 58
c0 32 3 62 7 65 3 4 33 7 65 7 l58 0 0 -65z"/>
    <path d="M427 594 c-4 -4 -7 -20 -7 -35 0 -22 6 -30 26 -35 32 -8 46 6 42 42
-2 23 -9 30 -28 32 -14 2 -29 0 -33 -4z"/>
    <path d="M907 624 c-4 -4 -7 -34 -7 -66 l0 -58 -34 0 c-35 0 -63 -21 -51 -40
3 -5 33 -10 65 -10 70 0 73 5 68 110 -2 49 -7 66 -18 68 -9 1 -19 0 -23 -4z"/>
    <path d="M690 485 c-17 -21 -4 -35 35 -35 19 0 37 5 40 10 10 16 -14 40 -40
40 -12 0 -28 -7 -35 -15z"/>
    <path d="M1013 1324 c-8 -21 13 -42 28 -27 13 13 5 43 -11 43 -6 0 -13 -7 -17
-16z"/>
    <path d="M1075 1279 c-57 -53 -67 -75 -39 -86 10 -4 31 10 61 38 57 57 67 73
48 89 -12 10 -24 2 -70 -41z"/>
    <path d="M1125 1210 c-4 -7 -3 -16 3 -22 14 -14 45 -2 40 15 -6 16 -34 21 -43
7z"/>
  </g>
</svg>
