<?xml version="1.0" standalone="no"?>
<!DOCTYPE svg PUBLIC "-//W3C//DTD SVG 20010904//EN"
 "http://www.w3.org/TR/2001/REC-SVG-20010904/DTD/svg10.dtd">
<svg version="1.0"
  xmlns="http://www.w3.org/2000/svg" width="512px" height="512px" viewBox="0 0 512.000000 512.000000" preserveAspectRatio="xMidYMid meet">

  <g transform="translate(0.000000,512.000000) scale(0.100000,-0.100000)" fill="#000000" stroke="none">
    <path d="M921 5098 c-24 -11 -51 -34 -61 -50 -10 -16 -158 -424 -330 -906
-171 -482 -352 -988 -401 -1123 -99 -274 -107 -319 -66 -380 12 -19 42 -44 67
-56 44 -23 48 -23 471 -23 l428 0 6 -57 c87 -757 665 -1322 1413 -1383 265
-21 528 28 782 146 l94 45 143 -143 143 -143 0 -50 c0 -97 17 -118 447 -546
444 -442 436 -436 556 -427 35 3 78 13 97 23 48 25 346 320 378 375 23 39 27
56 27 125 0 58 -5 90 -19 115 -24 47 -780 805 -834 837 -29 17 -63 27 -106 30
l-64 6 -132 132 -132 132 38 59 c109 170 199 438 220 652 l7 72 426 0 c394 0
429 2 467 19 55 25 87 71 92 135 4 48 -28 142 -397 1175 -221 619 -410 1139
-422 1157 -11 18 -39 42 -63 53 -42 21 -45 21 -1637 21 l-1594 0 -44 -22z
m1218 -483 c426 -184 784 -335 796 -335 12 0 172 65 356 144 184 79 457 196
607 261 150 65 274 116 276 114 2 -2 20 -50 39 -106 33 -94 35 -103 19 -112
-9 -5 -89 -39 -177 -77 -87 -37 -167 -76 -177 -86 -21 -21 -24 -76 -4 -103 8
-12 127 -69 289 -139 l275 -119 50 -141 c28 -77 49 -142 47 -144 -2 -2 -135
54 -297 123 -633 275 -777 335 -795 335 -10 0 -93 -32 -185 -72 l-168 -71 -87
27 c-127 38 -232 56 -368 63 -101 5 -122 8 -135 24 -8 11 -355 165 -770 344
-603 259 -754 328 -752 341 2 9 8 27 12 40 l10 24 182 0 183 0 774 -335z
m1930 331 c-5 -5 -1100 -477 -1119 -483 -12 -3 -1124 468 -1139 483 -2 2 506
4 1129 4 623 0 1131 -2 1129 -4z m-2511 -513 c350 -152 641 -279 645 -283 4
-4 -43 -23 -105 -43 -109 -35 -293 -118 -347 -156 -14 -10 -93 -48 -175 -83
l-150 -65 -355 154 c-195 84 -358 156 -361 160 -6 8 198 593 207 593 2 0 291
-124 641 -277z m2778 -83 c13 -35 22 -66 20 -67 -2 -2 -28 8 -59 22 -31 13
-73 32 -94 41 l-38 16 60 28 c33 16 66 28 74 27 7 -1 24 -31 37 -67z m-313
-552 c320 -138 587 -256 594 -262 10 -9 293 -783 293 -801 0 -3 -183 -5 -407
-5 l-408 0 -17 123 c-50 353 -206 660 -458 900 -82 79 -285 226 -313 228 -9 0
113 64 131 68 2 1 265 -112 585 -251z m-1263 197 c145 -22 262 -59 405 -130
220 -108 395 -261 529 -463 154 -232 227 -475 228 -756 0 -146 -11 -228 -48
-363 -63 -234 -180 -432 -358 -608 -152 -149 -322 -254 -519 -320 -174 -58
-243 -68 -437 -68 -194 0 -263 10 -437 68 -515 171 -878 637 -922 1184 -31
386 102 762 371 1046 201 213 488 364 778 410 114 18 294 18 410 0z m-1746
-200 c198 -85 361 -157 363 -159 3 -2 -20 -37 -50 -78 -59 -80 -123 -185 -159
-262 l-23 -50 -438 -189 c-241 -104 -440 -188 -442 -185 -3 2 17 67 44 144
l48 139 301 130 c166 72 310 138 321 147 28 24 35 61 19 95 -15 31 -29 38
-263 139 -88 37 -162 69 -164 71 -6 4 70 213 78 213 3 0 168 -70 365 -155z
m-322 -306 c-8 -9 -246 -109 -249 -105 -1 1 14 45 34 98 l35 96 94 -41 c51
-23 90 -45 86 -48z m358 -583 c-11 -65 -20 -131 -20 -147 l0 -29 -322 1 c-178
0 -318 3 -313 5 163 73 671 291 673 289 1 -1 -7 -55 -18 -119z m2780 -1371
l105 -105 -123 -122 -122 -123 -110 110 c-61 60 -109 113 -108 116 2 4 37 34
79 67 42 33 95 83 119 111 24 28 46 51 49 51 4 0 53 -47 111 -105z m711 -568
c207 -205 384 -384 393 -399 32 -49 17 -73 -153 -241 -141 -141 -161 -157
-192 -157 -31 0 -63 29 -421 388 -380 379 -388 388 -388 427 0 37 7 47 158
197 144 144 161 158 192 158 32 -1 63 -29 411 -373z"/>
    <path d="M2380 3825 c-377 -59 -710 -300 -880 -635 -51 -102 -96 -232 -116
-337 -22 -120 -15 -372 15 -491 92 -365 346 -664 691 -813 490 -211 1064 -69
1399 347 177 220 263 464 264 744 1 329 -115 612 -348 846 -269 271 -651 397
-1025 339z m320 -169 c169 -26 184 -14 -240 -196 -230 -99 -388 -173 -396
-185 -20 -27 -17 -68 5 -96 13 -17 236 -118 760 -344 709 -305 741 -320 741
-345 0 -66 -72 -280 -94 -280 -11 0 -166 67 -1151 492 -203 88 -444 192 -535
231 -91 38 -169 74 -174 79 -16 14 80 190 153 279 225 278 580 417 931 365z
m446 -175 c82 -57 214 -193 267 -274 86 -130 151 -304 164 -440 l6 -67 -65 27
c-644 276 -1158 499 -1158 503 1 7 682 299 701 300 9 0 47 -22 85 -49z m-721
-1006 c418 -180 764 -331 769 -336 6 -5 -311 -9 -755 -9 l-766 0 -36 78 c-75
163 -102 301 -95 484 7 164 6 162 71 133 29 -12 394 -170 812 -350z m885 -524
c0 -13 -114 -111 -186 -160 -87 -58 -200 -108 -313 -138 -134 -36 -352 -38
-485 -5 -117 29 -229 79 -329 146 -88 59 -187 142 -187 157 0 5 299 9 750 9
447 0 750 -4 750 -9z"/>
  </g>
</svg>
