<?xml version="1.0" standalone="no"?>
<!DOCTYPE svg PUBLIC "-//W3C//DTD SVG 20010904//EN"
 "http://www.w3.org/TR/2001/REC-SVG-20010904/DTD/svg10.dtd">
<svg version="1.0" xmlns="http://www.w3.org/2000/svg"
 width="150px" height="150px" viewBox="0 0 150.000000 150.000000"
 preserveAspectRatio="xMidYMid meet">

<g transform="translate(0.000000,150.000000) scale(0.100000,-0.100000)"
fill="#000000" stroke="none">
<path d="M171 1419 c-190 -95 -228 -346 -74 -496 69 -67 127 -83 293 -83 l140
0 0 -121 c0 -111 -1 -121 -17 -114 -60 25 -73 27 -108 21 -24 -5 -51 -20 -72
-41 -28 -28 -33 -40 -33 -82 0 -59 14 -77 143 -183 l87 -72 0 -80 c0 -128 -26
-118 308 -118 211 0 291 3 300 12 9 9 12 84 12 275 0 286 -4 311 -54 350 -28
22 -42 25 -198 44 l-98 11 0 49 0 49 225 0 c260 0 301 9 378 83 67 66 92 126
92 222 0 130 -54 218 -167 275 l-61 30 -517 0 -517 0 -62 -31z m1074 -60 c24
-6 63 -27 86 -47 123 -105 99 -296 -46 -363 -35 -16 -67 -19 -261 -19 l-221 0
-5 85 c-5 98 -21 128 -82 159 -44 22 -91 16 -131 -16 -39 -30 -55 -77 -55
-158 l0 -70 -135 0 c-148 0 -187 9 -239 58 -116 109 -68 319 85 367 57 18 935
21 1004 4z m-545 -278 c6 -12 10 -98 10 -209 0 -140 3 -192 13 -200 6 -5 79
-18 160 -28 93 -11 154 -23 163 -31 11 -11 14 -48 14 -159 l0 -144 -235 0
-235 0 -105 90 c-58 50 -105 95 -105 100 0 16 31 40 52 40 12 0 46 -20 76 -45
30 -25 62 -45 71 -45 39 0 41 14 41 318 0 183 4 301 10 313 6 11 21 19 35 19
14 0 29 -8 35 -19z m360 -906 l0 -45 -220 0 -220 0 0 45 0 45 220 0 220 0 0
-45z"/>
<path d="M1095 1200 l-79 -80 -36 35 c-43 42 -76 45 -92 10 -10 -23 -8 -29 23
-62 58 -63 83 -83 104 -83 27 0 215 188 215 216 0 24 -18 44 -40 44 -8 0 -51
-36 -95 -80z"/>
</g>
</svg>
