<?xml version="1.0" standalone="no"?>
<!DOCTYPE svg PUBLIC "-//W3C//DTD SVG 20010904//EN"
 "http://www.w3.org/TR/2001/REC-SVG-20010904/DTD/svg10.dtd">
<svg version="1.0"
  xmlns="http://www.w3.org/2000/svg" width="512px" height="512px" viewBox="0 0 512.000000 512.000000" preserveAspectRatio="xMidYMid meet">

  <g transform="translate(0.000000,512.000000) scale(0.100000,-0.100000)" fill="#000000" stroke="none">
    <path d="M850 4945 c-396 -79 -717 -384 -816 -774 -91 -359 13 -739 276 -1001
133 -133 297 -227 497 -282 74 -21 102 -22 546 -26 l467 -3 0 -425 0 -424 -47
37 c-222 169 -546 119 -693 -109 -92 -142 -91 -320 3 -462 22 -33 140 -139
382 -343 l350 -294 5 -294 c5 -279 6 -295 26 -322 12 -15 36 -37 55 -48 33
-20 52 -20 969 -20 917 0 936 0 969 20 19 11 43 33 55 48 21 28 21 32 24 910
2 630 0 899 -8 942 -22 112 -93 222 -186 286 -84 58 -125 66 -552 119 -224 28
-417 53 -429 55 -23 5 -23 8 -23 165 l0 159 758 3 757 4 85 23 c501 139 826
579 797 1081 -16 265 -120 496 -311 686 -159 158 -330 249 -538 289 -70 13
-292 15 -1717 14 -1302 -1 -1649 -4 -1701 -14z m3402 -304 c261 -67 472 -277
545 -541 27 -101 25 -292 -6 -390 -85 -277 -301 -478 -573 -534 -66 -14 -177
-16 -788 -16 l-710 0 0 239 c0 131 -5 263 -10 292 -25 134 -120 255 -250 317
-65 32 -86 37 -166 40 -226 10 -403 -119 -459 -333 -11 -46 -15 -117 -15 -307
l0 -248 -420 0 c-346 0 -435 3 -498 16 -153 32 -284 105 -395 223 -80 86 -129
168 -170 286 -28 82 -31 101 -31 220 -1 145 13 211 68 330 90 192 280 350 488
405 70 18 133 19 1694 19 1569 1 1623 0 1696 -18z m-1905 -911 c72 -43 67 -2
73 -726 5 -644 5 -653 26 -681 44 -58 52 -60 581 -126 555 -70 545 -68 577
-147 14 -35 16 -102 16 -520 l0 -480 -794 0 -795 0 -338 284 c-186 156 -346
292 -356 303 -64 72 -2 191 108 208 75 12 110 -6 270 -141 184 -155 198 -164
256 -164 56 0 107 31 131 80 17 33 18 102 18 1025 0 923 1 992 18 1025 37 74
138 104 209 60z m1273 -3130 l0 -150 -750 0 -750 0 0 150 0 150 750 0 750 0 0
-150z"/>
    <path d="M3995 4349 c-11 -6 -136 -127 -277 -268 l-258 -256 -107 107 c-60 58
-118 111 -130 117 -34 18 -104 13 -141 -9 -62 -38 -87 -109 -62 -177 12 -32
331 -357 372 -379 35 -18 101 -18 136 0 15 8 172 160 348 338 341 342 344 346
330 423 -8 40 -38 80 -76 100 -34 17 -106 19 -135 4z"/>
  </g>
</svg>
