<?xml version="1.0" standalone="no"?>
<!DOCTYPE svg PUBLIC "-//W3C//DTD SVG 20010904//EN"
 "http://www.w3.org/TR/2001/REC-SVG-20010904/DTD/svg10.dtd">
<svg version="1.0"
  xmlns="http://www.w3.org/2000/svg" width="150px" height="150px" viewBox="0 0 150.000000 150.000000" preserveAspectRatio="xMidYMid meet">

  <g transform="translate(0.000000,150.000000) scale(0.100000,-0.100000)" fill="#000000" stroke="none">
    <path d="M256 1477 c-17 -24 -246 -662 -246 -683 0 -7 7 -20 16 -28 12 -13 40
-16 144 -16 l129 0 11 -57 c29 -141 126 -264 257 -326 64 -30 74 -32 183 -32
100 0 122 3 168 24 l53 24 45 -44 c24 -24 44 -53 44 -64 0 -14 45 -66 128
-148 156 -154 156 -154 248 -65 93 89 93 92 -58 245 -69 70 -134 126 -148 130
-14 3 -43 23 -66 45 l-41 39 28 55 c16 30 34 82 40 115 l12 59 128 0 c103 0
131 3 143 16 9 8 16 21 16 29 0 21 -229 657 -246 683 l-14 22 -480 0 -480 0
-14 -23z m374 -126 l231 -100 171 75 c95 41 177 74 184 74 10 0 30 -48 22 -55
-2 -2 -25 -14 -53 -27 -74 -35 -70 -48 29 -92 74 -33 86 -42 99 -74 8 -21 13
-39 11 -41 -2 -2 -74 27 -160 63 l-156 68 -50 -22 c-33 -14 -59 -19 -77 -15
-14 4 -51 11 -81 16 -67 10 -510 199 -510 216 0 9 17 13 54 13 47 0 88 -14
286 -99z m402 29 c-89 -39 -166 -70 -171 -70 -10 0 -313 128 -320 136 -2 2
144 4 325 4 l329 0 -163 -70z m-507 -111 c117 -50 125 -55 94 -64 -13 -4 -60
-25 -104 -46 -43 -22 -86 -39 -95 -39 -14 0 -199 75 -209 85 -3 4 24 91 46
142 l13 32 77 -33 c43 -19 123 -53 178 -77z m745 6 c0 -17 -2 -18 -24 -9 -23
9 -20 24 4 24 11 0 20 -7 20 -15z m-410 -117 c133 -40 230 -136 270 -266 59
-190 -29 -389 -210 -476 -61 -29 -72 -31 -175 -31 -102 0 -114 2 -165 29 -30
16 -68 40 -85 54 -84 70 -145 199 -145 307 0 105 58 232 138 303 39 34 143 82
199 92 53 9 119 4 173 -12z m325 -49 c88 -38 163 -73 167 -77 4 -4 25 -58 47
-119 l40 -113 -119 0 -119 0 -6 38 c-20 119 -85 230 -171 291 -29 21 -51 41
-47 45 15 15 59 2 208 -65z m-788 -43 c2 -1 -11 -28 -29 -59 -33 -55 -34 -56
-158 -110 -69 -30 -126 -51 -128 -47 -2 5 3 23 11 42 13 30 26 39 105 72 50
21 93 44 96 52 6 16 -20 35 -81 59 -46 19 -48 21 -33 59 l9 25 102 -45 c57
-24 104 -46 106 -48z m-204 -46 c-12 -10 -63 -30 -63 -25 0 2 5 15 11 29 10
21 14 23 36 13 13 -6 20 -13 16 -17z m117 -157 c0 -10 -3 -28 -6 -40 -6 -22
-11 -23 -98 -23 l-91 0 85 39 c98 45 110 47 110 24z m815 -413 l29 -30 -37
-38 -37 -37 -32 33 -32 32 34 35 c19 19 38 35 41 35 3 0 18 -14 34 -30z m212
-172 c62 -62 113 -117 113 -122 0 -14 -91 -106 -104 -106 -17 0 -236 223 -236
239 0 20 80 101 99 101 9 0 66 -51 128 -112z"/>
    <path d="M639 1107 c-89 -33 -174 -112 -211 -195 -31 -68 -32 -208 -1 -274 29
-63 106 -144 168 -176 45 -24 61 -27 155 -27 94 0 110 3 155 27 62 32 139 113
168 176 17 37 22 66 22 137 0 109 -20 159 -92 236 -72 77 -128 102 -238 106
-59 2 -103 -1 -126 -10z m181 -44 c0 -5 -49 -29 -108 -54 -79 -34 -107 -51
-107 -64 0 -13 51 -39 215 -111 118 -51 218 -95 222 -96 10 -4 -10 -75 -22
-83 -5 -3 -131 47 -279 111 l-270 116 19 37 c48 94 144 150 258 151 39 0 72
-3 72 -7z m143 -82 c47 -51 71 -96 83 -156 l6 -35 -83 36 c-207 88 -269 117
-264 123 13 13 171 79 191 80 13 1 39 -18 67 -48z m-271 -247 c123 -53 227
-100 232 -105 12 -11 -414 -12 -430 -1 -30 19 -61 202 -35 202 5 0 110 -43
233 -96z m252 -185 c-81 -91 -307 -91 -388 0 l-19 21 213 0 213 0 -19 -21z"/>
  </g>
</svg>
