<?xml version="1.0" standalone="no"?>
<!DOCTYPE svg PUBLIC "-//W3C//DTD SVG 20010904//EN"
 "http://www.w3.org/TR/2001/REC-SVG-20010904/DTD/svg10.dtd">
<svg version="1.0"
  xmlns="http://www.w3.org/2000/svg" width="512px" height="512px" viewBox="0 0 512.000000 512.000000" preserveAspectRatio="xMidYMid meet">

  <g transform="translate(0.000000,512.000000) scale(0.100000,-0.100000)" fill="#000000" stroke="none">
    <path d="M930 5109 c-164 -32 -310 -182 -340 -349 -7 -37 -9 -795 -8 -2235 l3
-2180 23 -57 c47 -117 143 -213 260 -260 l57 -23 1270 0 c1376 0 1313 -2 1415
54 52 29 143 118 166 163 9 17 25 56 35 86 18 53 19 100 19 1028 l0 973 -26
20 c-33 26 -65 27 -95 2 l-24 -19 -5 -974 c-6 -1089 1 -1004 -79 -1091 -23
-25 -65 -55 -94 -68 -52 -24 -53 -24 -514 -27 -255 -2 -463 0 -463 4 0 3 14
36 32 71 57 117 50 271 -18 375 l-24 37 413 3 c400 3 413 4 452 25 53 28 99
78 124 133 20 45 21 59 21 1364 l0 1319 46 -7 c26 -3 60 -6 75 -6 l29 0 0
-475 c0 -333 3 -481 11 -499 21 -46 94 -54 127 -14 9 11 12 141 14 503 l3 488
80 19 c278 65 515 297 597 584 19 66 22 103 22 219 0 123 -4 151 -28 230 -86
283 -293 484 -584 567 -65 19 -98 22 -214 20 -76 -1 -155 -2 -175 -1 -292 6
-2570 5 -2603 -2z m2202 -236 c-78 -79 -106 -116 -144 -188 -25 -49 -54 -116
-64 -147 l-18 -58 -910 0 -911 0 -50 -24 c-58 -27 -94 -63 -127 -126 -21 -42
-23 -57 -23 -202 0 -149 1 -159 22 -179 29 -29 77 -29 106 0 20 20 22 34 27
171 5 147 5 150 33 177 l27 28 895 3 895 2 0 -72 c1 -275 180 -560 438 -695
l52 -28 -2 -1335 c-3 -1432 0 -1357 -52 -1391 -18 -12 -193 -14 -1081 -17
-583 -2 -1080 0 -1104 3 -30 5 -54 16 -73 35 l-28 28 0 1440 c0 992 -3 1449
-11 1470 -24 68 -119 64 -139 -7 -8 -25 -10 -489 -8 -1476 l3 -1440 29 -59
c30 -60 84 -109 149 -133 22 -8 152 -12 429 -12 l396 -1 -30 -60 c-61 -122
-61 -249 0 -364 15 -28 29 -55 30 -59 2 -5 -207 -7 -464 -5 -455 3 -470 4
-515 24 -60 28 -125 93 -153 153 l-21 46 0 2185 0 2185 21 46 c25 53 87 120
135 145 18 9 53 20 78 24 25 4 544 8 1153 9 l1106 1 -96 -97z m728 76 c30 -6
97 -31 149 -56 171 -82 307 -247 357 -433 27 -102 23 -264 -10 -365 -92 -285
-349 -474 -647 -475 -172 0 -338 69 -465 195 -130 128 -191 264 -201 445 -14
254 118 492 347 623 132 76 293 98 470 66z m-1543 -4337 c87 -45 140 -141 130
-238 -21 -205 -271 -292 -414 -142 -119 123 -69 331 95 393 49 19 137 13 189
-13z"/>
    <path d="M1911 4809 c-72 -29 -65 -125 11 -144 13 -3 150 -5 304 -3 261 3 284
4 303 22 29 26 29 86 0 112 -20 18 -42 19 -308 21 -171 1 -296 -2 -310 -8z"/>
    <path d="M1210 3560 c-19 -19 -20 -33 -20 -349 0 -309 1 -330 19 -352 l19 -24
331 0 330 0 23 23 c23 22 23 26 26 320 2 163 0 312 -3 330 -3 18 -15 42 -26
53 -18 18 -35 19 -349 19 -317 0 -331 -1 -350 -20z m570 -350 l0 -220 -220 0
-220 0 0 220 0 220 220 0 220 0 0 -220z"/>
    <path d="M1484 3330 c-38 -15 -54 -50 -54 -118 0 -66 18 -115 45 -126 9 -3 50
-6 91 -6 66 0 78 3 99 25 22 21 25 33 25 94 0 85 -13 117 -53 131 -36 12 -123
12 -153 0z"/>
    <path d="M2151 3554 c-16 -20 -21 -41 -21 -84 0 -74 25 -110 76 -110 56 0 74
27 74 110 0 57 -4 74 -20 90 -30 30 -83 27 -109 -6z"/>
    <path d="M2501 3554 c-20 -26 -21 -38 -21 -348 0 -308 1 -323 20 -344 11 -11
35 -24 52 -27 18 -3 167 -5 331 -3 l299 3 24 28 24 28 0 320 0 320 -25 24 -24
25 -330 0 -330 0 -20 -26z m579 -344 l0 -220 -225 0 -225 0 0 220 0 220 225 0
225 0 0 -220z"/>
    <path d="M2775 3331 c-41 -17 -50 -40 -50 -123 0 -75 2 -81 28 -104 24 -21 38
-24 101 -24 59 0 78 4 100 21 24 19 26 26 26 104 0 114 -12 129 -111 132 -41
2 -83 -1 -94 -6z"/>
    <path d="M2151 3234 c-19 -24 -21 -40 -21 -180 0 -93 4 -163 11 -178 23 -49
104 -53 128 -7 7 12 11 88 11 185 0 153 -2 168 -20 186 -30 30 -83 27 -109 -6z"/>
    <path d="M2513 2630 c-12 -5 -26 -18 -32 -29 -7 -13 -11 -127 -11 -320 l0
-301 -172 0 c-126 -1 -178 -4 -190 -14 -25 -19 -37 -57 -26 -85 18 -48 28 -50
266 -51 l223 0 24 25 25 24 0 350 c0 192 -3 357 -6 366 -6 15 -54 46 -71 44
-4 0 -18 -4 -30 -9z"/>
    <path d="M2833 2630 c-12 -5 -26 -18 -32 -29 -7 -13 -11 -142 -11 -374 l0
-354 23 -21 c33 -31 80 -29 106 4 20 26 21 38 21 379 0 321 -2 355 -17 373
-21 25 -60 35 -90 22z"/>
    <path d="M3106 2619 c-23 -18 -26 -28 -26 -80 0 -71 21 -99 74 -99 84 0 108
153 29 189 -34 16 -47 14 -77 -10z"/>
    <path d="M1216 2609 c-33 -26 -36 -79 -6 -109 19 -19 33 -20 470 -20 l450 0 0
-124 c0 -110 2 -126 21 -150 26 -33 79 -36 109 -6 19 19 20 33 20 204 l0 185
-26 20 c-26 21 -36 21 -519 21 -483 0 -493 0 -519 -21z"/>
    <path d="M1216 2269 l-26 -20 0 -334 0 -334 26 -20 c26 -20 38 -21 345 -21
l318 0 28 24 28 24 0 327 0 327 -28 24 -28 24 -318 0 c-307 0 -319 -1 -345
-21z m564 -354 l0 -225 -220 0 -220 0 0 225 0 225 220 0 220 0 0 -225z"/>
    <path d="M1459 2021 c-22 -17 -24 -27 -24 -104 0 -118 9 -127 126 -127 83 0
89 1 108 26 17 21 21 41 21 99 0 58 -4 78 -21 99 -19 24 -26 26 -104 26 -67 0
-87 -4 -106 -19z"/>
    <path d="M3133 2162 c-44 -7 -48 -23 -53 -251 l-5 -216 -130 -3 c-116 -2 -132
-5 -152 -24 -33 -30 -31 -80 3 -107 25 -19 40 -21 200 -21 95 0 180 3 189 6
40 16 45 52 45 312 0 233 -1 251 -20 274 -21 27 -42 36 -77 30z"/>
    <path d="M2351 1664 c-28 -35 -26 -69 4 -99 22 -23 32 -25 120 -25 88 0 98 2
120 25 30 30 32 64 4 99 -20 25 -24 26 -124 26 -100 0 -104 -1 -124 -26z"/>
    <path d="M3465 4545 c-50 -49 -20 -125 49 -125 40 0 76 37 76 77 0 32 -42 73
-75 73 -14 0 -37 -11 -50 -25z"/>
    <path d="M3845 4520 c-11 -4 -98 -86 -192 -182 -147 -148 -173 -179 -173 -204
0 -39 36 -74 76 -74 25 0 57 28 212 183 100 101 182 191 182 200 0 29 -22 65
-47 76 -28 13 -31 13 -58 1z"/>
    <path d="M3866 4149 c-33 -26 -36 -79 -6 -109 30 -30 83 -27 109 6 28 35 26
69 -4 99 -30 30 -64 32 -99 4z"/>
  </g>
</svg>
