<?xml version="1.0" standalone="no"?>
<!DOCTYPE svg PUBLIC "-//W3C//DTD SVG 20010904//EN"
 "http://www.w3.org/TR/2001/REC-SVG-20010904/DTD/svg10.dtd">
<svg version="1.0" xmlns="http://www.w3.org/2000/svg"
 width="512.000000pt" height="512.000000pt" viewBox="0 0 512.000000 512.000000"
 preserveAspectRatio="xMidYMid meet">

<g transform="translate(0.000000,512.000000) scale(0.100000,-0.100000)"
fill="#000000" stroke="none">
<path d="M172 5095 c-40 -34 -49 -76 -25 -119 10 -18 468 -603 1018 -1300 550
-696 1010 -1285 1023 -1308 20 -38 22 -54 22 -213 0 -95 3 -186 6 -204 16 -79
113 -110 167 -53 l27 28 0 172 0 172 125 0 125 0 0 -712 c1 -392 5 -743 9
-780 5 -38 22 -96 39 -133 50 -105 100 -147 322 -265 107 -57 227 -121 265
-142 l70 -38 -830 0 -830 0 259 138 c298 157 354 200 408 310 l33 66 3 202 3
201 -24 29 c-21 24 -33 29 -70 29 -89 0 -107 -43 -107 -258 0 -160 -9 -195
-62 -244 -13 -13 -215 -125 -449 -249 -233 -124 -435 -233 -447 -241 -13 -8
-30 -30 -38 -49 -12 -29 -12 -39 0 -68 30 -71 -80 -66 1324 -66 l1264 0 29 29
c37 38 40 97 7 135 -13 13 -216 127 -452 253 -442 235 -483 262 -508 333 -10
27 -13 212 -13 805 0 734 1 772 19 804 10 19 462 586 1004 1260 542 675 1011
1257 1041 1295 46 57 56 75 56 108 0 32 -7 46 -33 69 -32 29 -56 34 -100 22
-15 -4 -151 -164 -388 -460 l-365 -453 -187 2 -186 3 -6 30 c-17 79 -99 178
-175 209 l-36 15 71 96 c87 117 96 140 76 189 -25 61 -101 79 -150 37 -10 -9
-49 -58 -87 -109 l-69 -92 -33 36 c-48 56 -137 94 -218 94 -96 0 -154 -23
-220 -89 -76 -76 -94 -131 -86 -255 4 -50 10 -108 13 -128 l7 -38 -904 0 -904
1 -281 357 -281 357 1816 5 c999 3 1824 9 1833 13 67 33 61 140 -9 176 -16 8
-550 11 -1952 11 l-1929 0 -30 -25z m2984 -603 c36 -28 46 -59 39 -112 -15
-110 75 -173 179 -124 69 33 143 -7 153 -83 4 -32 0 -45 -21 -70 -15 -18 -36
-35 -47 -38 -25 -8 -413 -74 -417 -70 -5 4 -52 379 -52 417 0 57 43 98 102 98
26 0 52 -7 64 -18z m-748 -532 c-62 -54 -123 -147 -149 -229 -43 -136 -20
-308 56 -421 l35 -52 -60 -78 c-74 -97 -84 -122 -70 -166 15 -44 45 -64 95
-64 46 0 68 18 145 123 23 31 45 57 49 57 3 0 31 -9 61 -21 201 -77 462 10
583 193 60 92 80 160 81 273 1 80 -4 114 -23 168 -13 38 -21 69 -20 71 2 1 69
13 149 26 187 30 238 49 300 111 l49 49 121 0 c66 0 120 -2 120 -5 0 -3 -267
-337 -593 -742 -327 -406 -600 -748 -608 -760 -13 -22 -18 -23 -189 -23 -166
0 -176 1 -188 20 -7 12 -273 350 -590 753 -318 403 -581 738 -586 745 -6 9
132 12 636 12 l643 0 -47 -40z m459 -108 c65 -34 110 -78 140 -140 40 -81 40
-183 0 -264 -88 -180 -322 -224 -470 -88 -141 128 -135 332 13 456 77 66 226
82 317 36z"/>
<path d="M4432 5105 c-38 -17 -66 -71 -56 -110 11 -43 52 -75 96 -75 108 0
137 154 36 189 -38 13 -35 13 -76 -4z"/>
<path d="M2273 1615 c-39 -17 -53 -42 -53 -93 0 -51 43 -92 97 -92 49 0 93 45
93 95 0 49 -15 74 -55 91 -41 17 -42 17 -82 -1z"/>
</g>
</svg>
