<svg width="24" height="24" viewBox="0 0 24 24" fill="none" xmlns="http://www.w3.org/2000/svg">
<path fill-rule="evenodd" clip-rule="evenodd" d="M17.4826 16.08C16.7602 16.08 16.1138 16.38 15.6195 16.85L8.84182 12.7C8.88934 12.47 8.92737 12.24 8.92737 12C8.92737 11.76 8.88934 11.53 8.84182 11.3L15.5434 7.19C16.0567 7.69 16.7316 8 17.4826 8C19.0606 8 20.3344 6.66 20.3344 5C20.3344 3.34 19.0606 2 17.4826 2C15.9046 2 14.6309 3.34 14.6309 5C14.6309 5.24 14.6689 5.47 14.7164 5.7L8.01481 9.81C7.5015 9.31 6.82658 9 6.07562 9C4.49766 9 3.22388 10.34 3.22388 12C3.22388 13.66 4.49766 15 6.07562 15C6.82658 15 7.5015 14.69 8.01481 14.19L14.783 18.35C14.7354 18.56 14.7069 18.78 14.7069 19C14.7069 20.61 15.9522 21.92 17.4826 21.92C19.013 21.92 20.2583 20.61 20.2583 19C20.2583 17.39 19.013 16.08 17.4826 16.08Z" fill="black"/>
</svg>
