<svg version="1.0" xmlns="http://www.w3.org/2000/svg"
 width="144" height="144" viewBox="0 0 144 144"
 preserveAspectRatio="xMidYMid meet">

<g transform="translate(0.000000,144.000000) scale(0.100000,-0.100000)"
fill="#000000" stroke="none">
<path d="M591 1430 c-157 -33 -262 -91 -376 -205 -100 -99 -146 -175 -187
-305 -33 -108 -33 -292 0 -400 40 -127 88 -206 182 -301 128 -130 272 -199
444 -215 l76 -7 0 282 0 281 -75 0 -75 0 0 90 0 90 75 0 75 0 0 83 c0 110 21
178 69 226 48 48 102 63 211 59 l85 -3 3 -82 3 -83 -71 0 c-98 0 -110 -13
-110 -120 l0 -80 88 0 88 0 -11 -87 -10 -88 -77 -3 -78 -3 0 -265 0 -265 23 6
c12 3 60 25 107 48 107 53 237 176 295 280 68 123 88 204 89 352 1 110 -3 142
-22 205 -41 130 -87 206 -187 305 -98 99 -175 146 -300 185 -79 25 -260 35
-334 20z"/>
</g>
</svg>
