<svg version="1.0" xmlns="http://www.w3.org/2000/svg"
 width="145" height="144" viewBox="0 0 145 144"
 preserveAspectRatio="xMidYMid meet">

<g transform="translate(0.000000,144.000000) scale(0.100000,-0.100000)"
fill="#000000" stroke="none">
<path d="M585 1424 c-88 -18 -232 -88 -307 -148 -111 -89 -202 -232 -238 -372
-25 -97 -27 -260 -4 -353 53 -213 192 -384 389 -477 202 -96 431 -96 619 -2
184 92 300 222 370 413 38 106 48 286 21 398 -36 152 -131 305 -246 395 -175
137 -393 190 -604 146z m213 -486 c8 -8 12 -46 12 -104 0 -99 5 -124 25 -124
18 0 64 63 106 145 l36 70 101 3 c98 3 102 2 102 -18 0 -28 -21 -68 -86 -157
-30 -42 -54 -82 -54 -90 0 -7 29 -44 65 -81 66 -67 83 -98 71 -128 -5 -13 -22
-15 -106 -12 l-100 3 -56 58 c-31 31 -60 57 -64 57 -14 0 -27 -25 -35 -65 -8
-48 -17 -55 -76 -55 -155 0 -275 105 -400 352 -69 137 -68 138 34 138 45 0 87
-4 92 -8 6 -4 19 -27 30 -52 32 -72 95 -161 113 -158 23 4 33 54 26 121 -5 46
-11 61 -30 74 -19 12 -22 19 -13 29 15 18 189 20 207 2z"/>
</g>
</svg>
