<svg version="1.0" xmlns="http://www.w3.org/2000/svg"
 width="144" height="144" viewBox="0 0 144 144"
 preserveAspectRatio="xMidYMid meet">

<g transform="translate(0.000000,144.000000) scale(0.100000,-0.100000)"
fill="#000000" stroke="none">
<path d="M591 1430 c-157 -33 -262 -91 -376 -205 -100 -99 -146 -175 -187
-305 -19 -63 -23 -95 -22 -205 0 -111 4 -141 26 -207 40 -120 92 -204 182
-293 93 -92 177 -144 291 -182 71 -23 96 -26 215 -26 118 -1 145 3 212 25 118
39 203 92 293 182 148 149 204 282 212 509 l6 137 -362 0 -361 0 0 -140 0
-140 210 0 c116 0 210 -2 210 -5 0 -21 -50 -104 -88 -146 -94 -105 -194 -150
-332 -150 -197 -1 -363 121 -426 311 -25 79 -23 198 6 275 99 261 379 373 624
249 56 -28 72 -32 81 -22 50 56 146 191 142 201 -8 22 -130 87 -212 113 -89
29 -263 41 -344 24z"/>
</g>
</svg>
