<svg version="1.0" xmlns="http://www.w3.org/2000/svg"
 width="512.000000pt" height="512.000000pt" viewBox="0 0 512.000000 512.000000"
 preserveAspectRatio="xMidYMid meet">

<g transform="translate(0.000000,512.000000) scale(0.100000,-0.100000)"
fill="#000000" stroke="none">
<path d="M2375 5111 c-194 -32 -273 -90 -357 -263 -69 -142 -156 -208 -358
-273 -121 -38 -192 -37 -295 6 -105 43 -212 51 -298 21 -86 -31 -180 -99 -300
-217 -129 -128 -200 -226 -227 -313 -28 -90 -25 -138 15 -259 44 -132 46 -202
10 -309 -59 -176 -142 -297 -230 -338 -138 -63 -169 -83 -215 -133 -49 -54
-80 -118 -103 -217 -17 -73 -16 -415 2 -491 35 -155 89 -222 239 -299 126 -64
173 -109 226 -215 57 -113 88 -216 89 -296 0 -57 -6 -85 -33 -150 -63 -152
-51 -278 38 -415 52 -79 265 -294 345 -347 80 -53 167 -83 240 -83 33 0 88 13
152 35 161 56 264 44 456 -56 121 -63 150 -94 212 -222 78 -161 151 -222 312
-258 82 -19 448 -19 530 0 161 36 234 97 312 258 62 128 91 159 212 222 192
100 295 112 456 56 207 -72 325 -33 544 180 134 130 191 201 234 292 29 62 32
76 32 163 -1 85 -4 104 -35 175 -43 104 -45 183 -5 300 35 106 96 222 141 268
21 21 85 62 145 93 149 76 206 147 240 299 18 76 19 419 2 491 -42 181 -115
265 -287 335 -112 45 -196 159 -261 353 -36 107 -34 177 10 309 40 121 43 169
15 259 -26 85 -96 183 -215 302 -113 111 -192 173 -273 213 -51 25 -68 28
-157 28 -91 0 -107 -3 -180 -34 -63 -26 -93 -33 -145 -33 -120 1 -341 89 -424
169 -23 22 -58 77 -84 130 -73 151 -134 206 -271 246 -74 21 -365 33 -456 18z
m381 -331 c25 -9 37 -25 66 -88 81 -179 207 -290 433 -383 237 -96 407 -107
585 -38 41 16 85 29 96 29 47 0 266 -199 323 -293 l23 -38 -31 -87 c-59 -163
-58 -305 4 -488 92 -277 214 -432 412 -526 99 -46 103 -50 115 -91 19 -63 18
-373 -2 -412 -11 -22 -39 -41 -106 -75 -50 -25 -112 -62 -138 -84 -139 -114
-276 -390 -306 -619 -13 -98 -3 -192 31 -285 45 -123 46 -126 14 -173 -41 -63
-200 -224 -257 -260 l-50 -32 -61 23 c-117 43 -175 52 -292 47 -122 -5 -219
-31 -360 -97 -198 -91 -305 -190 -386 -356 -49 -99 -53 -104 -93 -116 -55 -17
-377 -17 -432 0 -40 12 -44 17 -93 116 -81 166 -187 265 -383 355 -144 67
-240 92 -363 98 -117 5 -175 -4 -292 -47 l-61 -23 -50 32 c-57 36 -216 197
-257 260 -32 47 -31 50 14 173 34 93 44 187 31 285 -30 229 -167 505 -306 619
-26 22 -88 59 -138 84 -67 34 -95 53 -106 75 -20 39 -21 349 -2 412 12 41 16
45 115 91 197 93 320 250 412 526 62 183 63 325 4 488 l-31 87 23 38 c57 94
276 293 323 293 11 0 55 -13 96 -29 178 -69 348 -58 585 39 227 92 351 202
433 383 37 81 42 85 132 101 46 8 295 -2 326 -14z"/>
<path d="M2410 3505 c-416 -65 -744 -406 -801 -831 -35 -269 60 -561 250 -767
218 -235 549 -347 862 -292 576 100 931 689 747 1242 -114 344 -411 595 -768
649 -114 17 -176 17 -290 -1z m336 -336 c128 -39 245 -120 321 -222 195 -263
172 -610 -56 -838 -252 -252 -650 -252 -902 0 -301 302 -231 799 144 1009 144
81 331 101 493 51z"/>
</g>
</svg>
